# xmcd CD database file
#
# Track frame offsets:
#	150
#	12900
#	24534
#	35874
#	47605
#	60425
#	72785
#	85559
#	99597
#	114123
#	125095
#	136245
#	150437
#	163846
#	177924
#	190992
#	204164
#	218976
#	229717
#	242649
#
# Disc length: 3424 seconds
#
# Revision: 0
# Processed by: cddbd v1.5.2PL0 Copyright (c) Steve Scherf et al.
# Submitted via: ACXtractor (MTCDDB.DLL V2003.07.15)
#
DISCID=050d5e14
DTITLE=Gene Autry - Home on the Range
DYEAR=2008
DGENRE=Country
TTITLE0=Goodbye Little Darling Goodbye
TTITLE1=The Call of the Canyon
TTITLE2=When the Swallows come Back to Capistrano
TTITLE3=Back in the Saddle Again
TTITLE4=Little Old Band of Gold
TTITLE5=Rhythm of the Hoofbeats
TTITLE6=South of the Border
TTITLE7=TitleThe Old Trail
TTITLE8=Blue Hawaii
TTITLE9=Dust
TTITLE10=It's Round-up Time in Reno
TTITLE11=Take me Back to my Boots and Saddle
TTITLE12=Guns and Guitars
TTITLE13=Mexicali Rose
TTITLE14=Ridin' down the Canyon
TTITLE15=Texas Plains
TTITLE16=Tumbling Tumbleweeds
TTITLE17=The Last Round-Up
TTITLE18=The Yellow Rose of Texas
TTITLE19=Rudoph The red Nosed Reindeer
EXTD=ID3G:   2 YEAR: 2008
EXTT0=
EXTT1=
EXTT2=
EXTT3=
EXTT4=
EXTT5=
EXTT6=
EXTT7=
EXTT8=
EXTT9=
EXTT10=
EXTT11=
EXTT12=
EXTT13=
EXTT14=
EXTT15=
EXTT16=
EXTT17=
EXTT18=
EXTT19=
PLAYORDER=
